<svg width="25" height="25" viewBox="0 0 25 25" fill="none" xmlns="http://www.w3.org/2000/svg">
<path d="M2.49557 0.5H22.4512C23.5568 0.5 24.4468 1.39002 24.4468 2.49557V22.4512C24.4468 23.5568 23.5568 24.4468 22.4512 24.4468H2.49557C1.39002 24.4468 0.5 23.5568 0.5 22.4512V2.49557C0.5 1.39002 1.39002 0.5 2.49557 0.5Z" fill="black" stroke="black"/>
<path d="M2.49557 1.16516H22.4512C23.1883 1.16516 23.7816 1.75851 23.7816 2.49554V22.4512C23.7816 23.1882 23.1883 23.7816 22.4512 23.7816H2.49557C1.75854 23.7816 1.16519 23.1882 1.16519 22.4512V2.49554C1.16519 1.75851 1.75854 1.16516 2.49557 1.16516Z" fill="#FC8385"/>
<path d="M13.2294 4.5H3.77056C3.06468 4.5 2.5 5.06886 2.5 5.77997V12.5H14.5V5.77997C14.5 5.10439 13.9353 4.5 13.2294 4.5Z" fill="black"/>
<path d="M20.5 7.5H15.5V13.5H2.5V17.5783C2.5 18.7568 3.22727 18.7568 3.22727 18.7568H4.68182C4.68182 15.5 7.5 15.5 7.5 15.5C10.4091 15.5 10.5 18.7568 10.5 18.7568H14.7031C14.7031 15.5 17.5 15.5 17.5 15.5C20.4091 15.5 20.3182 18.7568 20.3182 18.7568H21.7727C22.5 18.7568 22.5 18 22.5 18V12.5L20.5 7.5ZM20.5 11.5H17V9H19.5L20.5 11.5Z" fill="black"/>
<path d="M7.5 16.5C6.39994 16.5 5.5 17.3999 5.5 18.5C5.5 19.6001 6.39994 20.5 7.5 20.5C8.60006 20.5 9.5 19.6001 9.5 18.5C9.5 17.3999 8.60006 16.5 7.5 16.5Z" fill="black"/>
<path d="M17.5 16.5C16.3999 16.5 15.5 17.3999 15.5 18.5C15.5 19.6001 16.3999 20.5 17.5 20.5C18.6001 20.5 19.5 19.6001 19.5 18.5C19.5 17.3999 18.6001 16.5 17.5 16.5Z" fill="black"/>
</svg>
