<svg width="19" height="19" viewBox="0 0 19 19" fill="none" xmlns="http://www.w3.org/2000/svg">
<path d="M2 0.5H17C17.831 0.5 18.5 1.169 18.5 2V17C18.5 17.831 17.831 18.5 17 18.5H2C1.169 18.5 0.5 17.831 0.5 17V2C0.5 1.169 1.169 0.5 2 0.5Z" fill="black" stroke="black"/>
<path d="M2.44118 1.5H16.5588C17.0802 1.5 17.5 1.91976 17.5 2.44118V16.5588C17.5 17.0802 17.0802 17.5 16.5588 17.5H2.44118C1.91976 17.5 1.5 17.0802 1.5 16.5588V2.44118C1.5 1.91976 1.91976 1.5 2.44118 1.5Z" fill="#409ABF"/>
<path d="M12.5517 10.2355C11.7818 10.7689 10.8421 11.0281 9.89429 10.9685H7.68846V14.5H5.5V4.5051H10.0332C10.9366 4.45862 11.8264 4.73131 12.5343 5.27137C13.2025 5.89106 13.5466 6.76494 13.4723 7.65349C13.6037 8.60484 13.2631 9.56052 12.5517 10.2355ZM10.8148 6.63734C10.4768 6.39164 10.0567 6.2732 9.63376 6.30418H7.68846V9.23602H9.68587C10.1131 9.25751 10.5338 9.12707 10.8669 8.86954C11.1702 8.56753 11.3222 8.1544 11.2838 7.73678C11.3237 7.32882 11.1707 6.92536 10.8669 6.63734H10.8148Z" fill="black"/>
</svg>
