<svg width="25" height="25" viewBox="0 0 25 25" fill="none" xmlns="http://www.w3.org/2000/svg">
<path d="M2.49557 0.5H22.4512C23.5568 0.5 24.4468 1.39002 24.4468 2.49557V22.4512C24.4468 23.5568 23.5568 24.4468 22.4512 24.4468H2.49557C1.39002 24.4468 0.5 23.5568 0.5 22.4512V2.49557C0.5 1.39002 1.39002 0.5 2.49557 0.5Z" fill="black" stroke="black"/>
<path d="M2.49557 1.16516H22.4512C23.1883 1.16516 23.7816 1.75851 23.7816 2.49554V22.4512C23.7816 23.1882 23.1883 23.7816 22.4512 23.7816H2.49557C1.75854 23.7816 1.16519 23.1882 1.16519 22.4512V2.49554C1.16519 1.75851 1.75854 1.16516 2.49557 1.16516Z" fill="#409ABF"/>
<path d="M16.0359 16.3616C15.1471 17.0043 14.0624 17.3166 12.9683 17.2447H10.422V21.5H7.89574V9.4568H13.1287C14.1714 9.40079 15.1986 9.72937 16.0158 10.3801C16.7871 11.1268 17.1843 12.1798 17.0985 13.2504C17.2503 14.3967 16.8571 15.5482 16.0359 16.3616ZM14.0309 12.026C13.6407 11.73 13.1557 11.5872 12.6675 11.6246H10.422V15.1572H12.7277C13.2209 15.1831 13.7065 15.026 14.0911 14.7157C14.4411 14.3518 14.6165 13.854 14.5722 13.3508C14.6184 12.8592 14.4417 12.3731 14.0911 12.026H14.0309ZM22.3715 9.01161C22.642 8.52928 22.4716 7.91889 21.9906 7.64671L12.9683 2.62871C12.6633 2.4571 12.2908 2.4571 11.9858 2.62871L2.96355 7.64671C2.4968 7.94478 2.35966 8.56521 2.65739 9.03249C2.93227 9.46403 3.48744 9.61939 3.94598 9.39298L12.5272 4.5757L21.0683 9.33276C21.5537 9.59932 22.163 9.42148 22.4295 8.93554L22.4317 8.93132L22.3715 9.01161Z" fill="black"/>
</svg>
