<svg width="25" height="25" viewBox="0 0 25 25" fill="none" xmlns="http://www.w3.org/2000/svg">
<path d="M2.49557 0.5H22.4512C23.5568 0.5 24.4468 1.39002 24.4468 2.49557V22.4512C24.4468 23.5568 23.5568 24.4468 22.4512 24.4468H2.49557C1.39002 24.4468 0.5 23.5568 0.5 22.4512V2.49557C0.5 1.39002 1.39002 0.5 2.49557 0.5Z" fill="black" stroke="black"/>
<path d="M2.49557 1.16516H22.4512C23.1883 1.16516 23.7816 1.75851 23.7816 2.49554V22.4512C23.7816 23.1882 23.1883 23.7816 22.4512 23.7816H2.49557C1.75854 23.7816 1.16519 23.1882 1.16519 22.4512V2.49554C1.16519 1.75851 1.75854 1.16516 2.49557 1.16516Z" fill="#87CEEB"/>
<path fill-rule="evenodd" clip-rule="evenodd" d="M16.4548 2.85554C16.8576 2.57238 17.3982 2.41141 17.9772 2.51496C18.3752 2.58617 18.6916 2.75869 18.9488 2.99576C19.3327 3.34959 19.5863 3.84715 19.5998 4.44811C19.6263 5.62592 18.6995 6.56133 17.4364 6.48135C16.8341 6.44325 16.3993 6.17994 16.0541 5.77024C15.8219 5.49453 15.6758 5.22148 15.6034 4.77863C15.4644 3.92798 15.9467 3.21272 16.4548 2.85554ZM6.31852 12.1004C7.09685 11.3631 8.02997 10.8004 9.25323 10.5479C9.33486 10.5311 9.43251 10.5379 9.50366 10.5079C9.58577 10.4732 9.72227 10.263 9.7741 10.2074C10.7146 9.19729 11.5854 8.14975 12.4985 7.12243C11.9558 6.78377 11.3876 6.47044 10.8258 6.15089C10.1675 6.70001 9.55549 7.29389 8.8927 7.87367C8.59166 8.13698 8.08569 8.42806 7.5405 8.20419C7.08514 8.01724 6.73924 7.56321 6.77931 6.9522C6.81273 6.4416 7.20514 6.16786 7.5305 5.87044C8.19686 5.26118 8.88274 4.63628 9.57374 4.03745C9.81066 3.83225 10.0319 3.59044 10.3951 3.50657C10.4378 3.49673 10.5058 3.51275 10.5353 3.4565C10.5507 3.50524 10.6916 3.46746 10.7958 3.47656C11.1035 3.50338 11.3671 3.69384 11.6171 3.83715C12.8579 4.54821 14.119 5.2781 15.3731 5.9906C15.6165 6.12891 15.8666 6.27653 16.1144 6.43133C16.3631 6.58693 16.6454 6.69559 16.8655 6.862C17.307 7.19571 17.5085 7.94072 17.2561 8.5147C17.1004 8.86906 16.7868 9.14242 16.535 9.43617C15.9552 10.1125 15.328 10.8114 14.7321 11.4995C15.9839 11.4491 17.3969 11.3553 18.6083 11.2591C18.7891 11.2852 18.9976 11.2466 19.2193 11.2891C19.8131 11.4032 20.2384 11.9106 20.1708 12.6513C20.0077 14.4403 19.8758 16.3502 19.7301 18.2403C19.6902 18.7591 19.6667 19.1348 19.3996 19.4423C19.121 19.7629 18.5673 19.9952 18.0574 19.7828C17.6355 19.607 17.2773 19.2211 17.2862 18.6509C17.2905 18.3772 17.3378 18.0753 17.3563 17.7796C17.4376 16.4766 17.5843 15.016 17.6668 13.7531C17.1946 13.7538 16.5839 13.8191 16.0742 13.8332C16.5471 14.8053 16.8427 16.2474 16.585 17.6694C16.3574 18.9257 15.7604 19.9837 15.0125 20.7243C14.4842 20.221 13.9755 19.698 13.45 19.1918C13.8529 18.7514 14.2118 18.1574 14.3715 17.4891C14.5345 16.8072 14.5201 16.1024 14.3214 15.4257C13.7651 13.7861 12.4903 12.6395 10.4151 12.6012C9.9132 12.592 9.37578 12.75 8.97278 12.9317C8.54472 13.1249 8.1967 13.3526 7.86102 13.6329C7.33823 13.1306 6.84482 12.5991 6.31852 12.1004ZM12.7388 19.8128C13.1563 20.1764 13.5443 20.5883 13.9407 20.9847C14.0711 21.1151 14.2256 21.223 14.3214 21.3753C13.2621 22.1937 11.8015 22.7592 10.0244 22.6474C9.37488 22.6065 8.79611 22.4298 8.27162 22.2467C8.11091 22.1907 7.95627 22.1065 7.81089 22.0365C7.4883 21.8809 7.1697 21.7133 6.89942 21.5156C6.62222 21.3128 6.38158 21.0768 6.13818 20.8445C5.23453 19.9821 4.50011 18.5743 4.39538 16.9783C4.34456 16.2036 4.45046 15.3171 4.68583 14.6246C4.92588 13.9183 5.26875 13.3424 5.66744 12.7916C6.06964 13.144 6.44017 13.5426 6.82933 13.9235C6.96237 14.0537 7.10493 14.1814 7.21993 14.3241C7.27246 14.3756 7.17465 14.4678 7.13984 14.5245C6.84583 15.0021 6.62829 15.6117 6.57896 16.3274C6.52133 17.1632 6.75595 17.9379 7.09977 18.5108C7.42396 19.0512 7.874 19.5389 8.44191 19.8931C9.00535 20.2445 9.72828 20.495 10.5153 20.4941C11.4343 20.4929 12.1462 20.1931 12.7388 19.8128Z" fill="black"/>
</svg>
